<?xml version="1.0" encoding="utf-8"?>
<!-- Generator: Adobe Illustrator 22.0.1, SVG Export Plug-In . SVG Version: 6.00 Build 0)  -->
<svg version="1.1" id="Layer_1" xmlns="http://www.w3.org/2000/svg" xmlns:xlink="http://www.w3.org/1999/xlink" x="0px" y="0px"
	 viewBox="0 0 538 432.4" style="enable-background:new 0 0 538 432.4;" xml:space="preserve">
<style type="text/css">
	.st0{fill:#FFFFFF;}
</style>
<title>Asset 3</title>
<g id="Layer_2_1_">
	<g id="Flat">
		<path class="st0" d="M511.5,0H105.4c-9.3,0-17.8,4.8-22.6,12.7H26.5C11.9,12.7,0,24.6,0,39.2v262.1c0,14.6,11.9,26.5,26.5,26.5
			l0,0h52.8c1.9,13,13.1,22.6,26.2,22.6h273L538,432.4v-406C538,11.8,526.1,0,511.5,0z M316,222.7l-0.1-15h115.5l0.1,15H316z
			 M431.5,274.3H316l-0.1-15h115.5L431.5,274.3z M316,172.7l-0.1-15h115.5l0.1,15H316z M316,124.5l-0.1-15h115.5l0.1,15H316z
			 M316,77.1l-0.1-15h115.5l0.1,15H316z M264.9,118.2l5.3,5.2l13.4-13.3l1.8,1.8L270.1,127l-7.1-7L264.9,118.2z M263.1,71.9l1.8-1.8
			l5.3,5.3L283.5,62l1.8,1.8l-15.1,15.2L263.1,71.9z M283,210.7c1.1,0,2,0.9,2,2v2c0,0.2,0,0.5-0.1,0.7l-3,7c-0.3,0.7-1,1.2-1.8,1.2
			h-9c-1.1,0-2-0.9-2-2v-10c0-0.5,0.2-1,0.6-1.4l6.6-6.6l1.1,1.1c0.3,0.3,0.4,0.7,0.4,1.1v0.3l-1,4.6L283,210.7z M284.9,165.5l-3,7
			c-0.3,0.7-1,1.2-1.8,1.2h-9c-1.1,0-2-0.9-2-2v-10c0-0.5,0.2-1,0.6-1.4l6.6-6.6l1.1,1.1c0.3,0.3,0.4,0.7,0.4,1.1v0.3l-1,4.6h6.3
			c1.1,0,2,0.9,2,2v2C285,164.9,285,165.2,284.9,165.5L284.9,165.5z M267,161.7v12h-4v-12H267z M267,211.7v12h-4v-12H267z
			 M274,252.5c7.2,0,13,5.8,13,13c0,7.2-5.8,13-13,13s-13-5.8-13-13S266.8,252.5,274,252.5C274,252.5,274,252.5,274,252.5z
			 M105,222.7l-0.1-15h115.5l0.1,15H105z M220.5,274.3H105l-0.1-15h115.5L220.5,274.3z M105,172.7l-0.1-15h115.5l0.1,15H105z
			 M105,124.5l-0.1-15h115.5l0.1,15H105z M104.9,60.9l115.5,0.5l0.1,15L105,75.9L104.9,60.9z M53.9,69.1l5.3,5.3L72.5,61l1.8,1.8
			L59.1,77.9l-7-7L53.9,69.1z M53.9,118.2l5.3,5.2l13.3-13.3l1.8,1.8L59.1,127l-7-7.1L53.9,118.2z M72,210.7c1.1,0,2,0.9,2,2v2
			c0,0.2,0,0.5-0.1,0.7l-3,7c-0.3,0.8-1,1.3-1.9,1.3h-9c-1.1,0-2-0.9-2-2v-10c0-0.5,0.2-1,0.6-1.4l6.6-6.6l1.1,1.1
			c0.3,0.3,0.4,0.7,0.4,1.1v0.3l-1,4.6L72,210.7z M73.9,165.5l-3,7c-0.3,0.8-1,1.3-1.9,1.3h-9c-1.1,0-2-0.9-2-2v-10
			c0-0.5,0.2-1,0.6-1.4l6.6-6.6l1.1,1.1c0.3,0.3,0.4,0.7,0.4,1.1v0.3l-1,4.6H72c1.1,0,2,0.9,2,2v2C74,165,74,165.2,73.9,165.5
			L73.9,165.5z M52,161.7h4v12h-4V161.7z M52,211.7h4v12h-4V211.7z M63,278.5c-7.2,0-13-5.8-13-13s5.8-13,13-13s13,5.8,13,13
			S70.2,278.5,63,278.5L63,278.5z M524,267.7v141.7l-139.2-71.6l-3-1.6H105.4c-5.4,0-10.1-3.5-11.8-8.6h372
			c14.6,0,26.5-11.9,26.5-26.5l0,0V39.2c0-11.5-7.4-21.7-18.4-25.2h37.8c6.9,0,12.5,5.6,12.5,12.5V267.7z"/>
	</g>
</g>
</svg>
